<svg xmlns="http://www.w3.org/2000/svg" data-name="Ebene 1" viewBox="0 0 599.81 208.4"><title>Zeichenfläche 2</title><path d="M0 0h599.81v208.4H0z" style="fill:#cc071e"/><path d="M64.56 175.26c7.92 0 11.67-3.75 11.67-11.46v-42.1h.42l24.6 42.3c4.59 7.92 8.55 11.26 15.63 11.26h24.8c6 0 11-2.29 11-7.09q0-2.81-2.5-6.88l-30.43-45C139.39 109 147.93 95 147.93 78.34c0-28.14-16.67-44.81-60.44-44.81H44.76C37 33.52 33.3 37.28 33.3 45.2v118.6c0 7.71 3.75 11.46 11.46 11.46Zm11.67-79.62V66h9.17c12.3 0 17.51 5.21 17.51 14.8S97.7 95.64 85.4 95.64Zm180.92 79.62c7.92 0 11.67-3.75 11.67-11.46v-10.22c0-7.92-3.75-11.67-11.67-11.67h-46.69v-21.26h34.18c7.92 0 11.67-3.75 11.67-11.46V99c0-7.92-3.75-11.67-11.67-11.67h-34.18V66.87h40.44c7.92 0 11.67-3.75 11.67-11.46V45.2c0-7.92-3.75-11.67-11.67-11.67h-72.74c-7.71 0-11.46 3.75-11.46 11.67v118.6c0 7.71 3.75 11.46 11.46 11.46ZM388 44.78c-1.67-7.92-5.63-11.26-14.38-11.26h-17.67c-8.75 0-12.71 3.33-14.38 11.26l-14.18 69.62H327l-11.49-69.62c-1.25-7.92-5.21-11.26-14.38-11.26H284c-7.09 0-11 3.13-11 9.38a20 20 0 0 0 .63 4.58l27.3 116.3c1.88 7.71 5.63 11.46 15.42 11.46h17.09c8.75 0 12.71-3.34 14.38-11.26l15.63-76.08h.42L379.5 164c1.67 7.92 5.63 11.26 14.38 11.26H411c9.8 0 13.55-3.75 15.42-11.46l27.3-116.3a20 20 0 0 0 .63-4.58c0-6.25-4.17-9.38-11-9.38h-14.66c-9.17 0-13.13 3.33-14.38 11.26l-11.47 69.6h-.42zm167.21 130.48c7.92 0 11.67-3.75 11.67-11.46v-10.22c0-7.92-3.75-11.67-11.67-11.67h-46.69v-21.26h34.18c7.92 0 11.67-3.75 11.67-11.46V99c0-7.92-3.75-11.67-11.67-11.67h-34.18V66.87H549c7.92 0 11.67-3.75 11.67-11.46V45.2c0-7.92-3.75-11.67-11.67-11.67h-72.79c-7.71 0-11.46 3.75-11.46 11.67v118.6c0 7.71 3.75 11.46 11.46 11.46Z" style="fill:#fff"/></svg>