<svg xmlns="http://www.w3.org/2000/svg" viewBox="0 0 200 200"><path d="M42.1 137.7A66 66 0 0 1 27.3 126a16.5 16.5 0 0 1-4.5 4c-1 .5-2 1-3 1.3a75.1 75.1 0 0 0 92.1 14.7 4.6 4.6 0 0 0 0-8 4.6 4.6 0 0 0-4.5-.1 65.8 65.8 0 0 1-65.3-.3Zm0-113.9a65.6 65.6 0 0 1 17.5-7 16.6 16.6 0 0 1-1.1-6c0-1.2 0-2.3.3-3.4A75 75 0 0 0 0 80a4.6 4.6 0 0 0 7 4 4.6 4.6 0 0 0 2.3-4A65.8 65.8 0 0 1 42 23.8Zm98.6 57a65.7 65.7 0 0 1-2.7 18.6c2 .3 4 1 5.8 2a18.5 18.5 0 0 1 2.7 1.9A75.1 75.1 0 0 0 113.1 16a4.6 4.6 0 0 0-6.8 4.1 4.6 4.6 0 0 0 2.2 4 65.8 65.8 0 0 1 32.2 56.5ZM75 49.4a31.3 31.3 0 1 1-31.2 31.2c0-17.2 14-31.2 31.2-31.2m0-9.3a40.5 40.5 0 1 0 40.6 40.5A40.5 40.5 0 0 0 75 40.2Z"/><circle cx="75" cy="10.8" r="10.8" fill="#F58320"/><circle cx="14.4" cy="115.7" r="10.8" fill="#F58320"/><circle cx="135.6" cy="115.7" r="10.8" fill="#F58320"/><path fill="#F58320" d="M84 73.3a9 9 0 1 0-13.4 7.8l-2.8 14.4a1.5 1.5 0 0 0 1.5 1.8h11.5a1.5 1.5 0 0 0 1.5-1.8L79.5 81a9 9 0 0 0 4.5-7.8Z"/></svg>
