<svg xmlns="http://www.w3.org/2000/svg" xml:space="preserve" viewBox="0 0 652 652"><path d="M520.4 335.6c3.5 0 6.5 2.9 6.5 6.5 0 3.5-2.9 6.5-6.5 6.5s-6.5-2.9-6.5-6.5 3-6.5 6.5-6.5m0 11.9c2.9 0 5.3-2.3 5.3-5.5 0-3-2.3-5.5-5.3-5.5-2.9 0-5.3 2.4-5.3 5.5s2.3 5.5 5.3 5.5m-1-4.4v2.8h-1.9V338h2.8c2.2 0 3.1.8 3.1 2.2 0 1-.5 1.8-1.6 2.2.3.1.4.4.6.7l1.6 2.7h-1.8c-.3 0-.4-.1-.5-.3l-1.2-2.3c-.1-.2-.2-.3-.5-.3h-.6zm0-1.3h.8c1.2 0 1.5-.4 1.5-1.1s-.2-1.1-1.3-1.1h-.9v2.2zM38.2 298.3c11.1 0 18.5 6.4 18.5 16 0 10-7.8 16.7-19.3 16.7h-9.8v14.6H21v-47.3zm-.3 26.5c7.3 0 12.1-4.2 12.1-10.5 0-6-4.8-9.9-12.1-9.9H27.6v20.4zm31.7-6.9c3-3.4 7.2-5.6 12.2-5.6v6.1c-5.3.1-9.3 2.3-12.2 6.4v20.8h-6.4V313h6.4zm50.3 13.9-.1-.1v.1H93.5c.9 5.1 4.5 9.2 10.9 9.2 3.8 0 6.6-1.5 8-4h6.9c-1.9 5.8-7.7 9.5-15.1 9.5-10.2 0-17.1-7.5-17.1-17.1 0-9.7 6.9-17.2 17.1-17.2 9.2 0 15.8 7 15.9 16.8 0 1 0 1.9-.2 2.8m-26.5-4.7h20.1c-.6-5.6-4.1-9.3-9.7-9.3-5.8 0-9.5 4-10.4 9.3m86.4.2v18.4h-6.4v-18c0-6.2-3.2-9.7-8.6-9.7-3.2 0-6.4 1.5-8.9 5.4.3 1.2.4 2.6.4 4v18.4H150v-18c0-6.2-3.2-9.7-8.6-9.7-3 0-6.1 1.7-8.5 5.3v22.5h-6.4v-32.5h6.4v2.9c2.4-2.5 5.3-3.9 9.7-3.9 4.5 0 8.5 1.9 10.9 5.5 3.4-3.5 7.1-5.5 12.6-5.5 7.8-.4 13.7 5.6 13.7 14.9m10.4-26.3c0-2.3 1.8-4 4.1-4s4.1 1.7 4.1 4-1.9 4-4.1 4c-2.3 0-4.1-1.7-4.1-4m7.4 44.6h-6.4v-32.5h6.4zm14.3-10.5c.8 4.1 3.9 6.4 9.3 6.4 4.5 0 7.7-1.8 7.7-4.7 0-2.3-1.9-3.7-4.8-4.2l-7.3-1.2c-5.2-.8-9.7-3.2-9.7-9.1 0-6.2 5.5-10 13.3-10 6.2 0 13.5 2.4 14.2 10.6l-6 .1c-.5-3.8-3.7-5.7-8.3-5.7s-7.1 1.9-7.1 4.4c0 2 1.4 3.7 5.5 4.3l6.3 1c4.8.8 9.7 3 9.7 9.2 0 6.7-6 10.4-14 10.4s-14.2-3.4-15.2-11.6zm62.1-3.3-.1-.1v.1h-26.3c.9 5.1 4.5 9.2 10.9 9.2 3.8 0 6.6-1.5 8-4h6.9c-1.9 5.8-7.7 9.5-15.1 9.5-10.2 0-17.1-7.5-17.1-17.1 0-9.7 6.9-17.2 17.1-17.2 9.2 0 15.8 7 15.9 16.8-.1 1-.1 1.9-.2 2.8m-26.4-4.7h20.1c-.6-5.6-4.1-9.3-9.7-9.3-5.9 0-9.6 4-10.4 9.3m91.8 18.5h-6.7v-20.3h-26.1v20.3H300v-47.4h6.6v20.9h26.1v-20.9h6.7zm40.6-13.8-.1-.1v.1h-26.3c.9 5.1 4.5 9.2 10.9 9.2 3.8 0 6.6-1.5 8-4h6.9c-1.9 5.8-7.7 9.5-15.1 9.5-10.2 0-17.1-7.5-17.1-17.1 0-9.7 6.9-17.2 17.1-17.2 9.2 0 15.8 7 15.9 16.8-.1 1-.1 1.9-.2 2.8m-26.5-4.7h20.1c-.6-5.6-4.1-9.3-9.7-9.3-5.8 0-9.6 4-10.4 9.3m66.7 18.5h-6.4v-2.8c-2.8 2.3-6.6 3.7-10.9 3.7-9.2 0-16.6-7.6-16.6-17.1s7.4-17.2 16.6-17.2c4.3 0 8.1 1.4 10.9 3.7v-2.8h6.4zm-6.4-10V323c-2.5-3.7-6.1-5.3-10-5.3-6.4 0-11.1 5.3-11.1 11.5s4.7 11.5 11.1 11.5c4 .2 7.5-1.3 10-5.1m23 10h-6.4v-49.5h6.4zm32.6-.2c-3.2 1-5.1 1.2-7.6 1.2-7.6 0-12-4.7-12-13.1v-15.1h-8V313h8v-12h6.4v12h12.2v5.4h-12.2v15.1c0 5.1 2.3 7.3 6.8 7.3 1.7 0 3.7-.3 5.5-.8zm38.6-18.1v18.4h-6.4v-18c0-6.2-3.4-9.7-9-9.7-3.4 0-7.1 1.9-9.7 5.5v22.3h-6.4v-49.6h6.4v20.2c2.9-2.7 6.7-4.3 11-4.3 8.4-.1 14.1 5.9 14.1 15.2"/><linearGradient id="a" x1="572.462" x2="604.101" y1="324.287" y2="298.113" gradientTransform="matrix(1 0 0 -1 0 652)" gradientUnits="userSpaceOnUse"><stop offset="0" style="stop-color:#dc582a"/><stop offset="1" style="stop-color:#ce3f29"/></linearGradient><path d="m577.2 371.5-64.6-105.7L621 328z" style="fill:url(#a)"/><linearGradient id="b" x1="597.388" x2="581.226" y1="283.665" y2="264.473" gradientTransform="matrix(1 0 0 -1 0 652)" gradientUnits="userSpaceOnUse"><stop offset="0" style="stop-color:#6eceb2"/><stop offset="1" style="stop-color:#62cec4"/></linearGradient><path d="m579.6 410.6-3.9-37.7L621 328z" style="fill:url(#b)"/><linearGradient id="c" x1="574.778" x2="546.226" y1="397.503" y2="364.32" gradientTransform="matrix(1 0 0 -1 0 652)" gradientUnits="userSpaceOnUse"><stop offset="0" style="stop-color:#ffc56e"/><stop offset="1" style="stop-color:#ffa45e"/></linearGradient><path d="m582.8 306 32.9-106.2-103.1 66z" style="fill:url(#c)"/><linearGradient id="d" x1="568.111" x2="589.376" y1="253.81" y2="213.579" gradientTransform="matrix(1 0 0 -1 0 652)" gradientUnits="userSpaceOnUse"><stop offset="0" style="stop-color:#00629b"/><stop offset="1" style="stop-color:#00568c"/></linearGradient><path d="m548.2 400.2 27.5-27.3 7.2 69.9z" style="fill:url(#d)"/></svg>