<svg xmlns="http://www.w3.org/2000/svg" width="500" height="500" fill="none" viewBox="0 0 500 500"><g clip-path="url(#a)"><path fill="#ffde91" d="M250 500c138.071 0 250-111.929 250-250S388.071 0 250 0 0 111.929 0 250s111.929 250 250 250"/><path fill="#2c1338" d="M307.55 312.661c-14.434 0-20.331-4.404-25.666-11.145-3.471-4.404-5.189-10.875-5.189-19.267v-39.243h48.445v-70.328h-48.445V105h-61.891v25.312c0 28.019-21.477 50.735-47.941 50.735a48 48 0 0 1-5.863-.37v62.329h32.507v62.656c0 24.671 4.47 43.658 13.411 56.611C220.734 382.069 236.033 395 273.426 395c21.679 0 39.808-4.943 51.714-11.549v-73.7a50.2 50.2 0 0 1-17.59 2.91"/></g><defs><clipPath id="a"><path fill="#fff" d="M0 0h500v500H0z"/></clipPath></defs></svg>