<svg xmlns="http://www.w3.org/2000/svg" width="1000.096" height="355.196"><path d="M332.5 1495.623c-77.37-6.88-145.085-37.529-196.525-88.95-48.577-48.557-78.383-110.189-88.513-183.019-2.49-17.899-3.044-59.947-1.04-78.828 6.505-61.268 28.811-116.013 66.486-163.172 10.153-12.71 31.25-34.259 43.398-44.328 64.39-53.374 145.665-79.376 233.638-74.745 41.505 2.185 70 7.28 101.889 18.22 22.131 7.593 53.938 23.656 63.75 32.196l2.479 2.157-.281 24.135-.281 24.136-10.5-6.462c-48.17-29.647-109.272-45.338-176.395-45.298-56.89.033-109.4 15.275-154.105 44.733-45.998 30.309-80.656 73.095-100.945 124.62-27.468 69.752-23.218 154.985 11.158 223.788 39.188 78.434 111.383 128.897 200.953 140.463 26.356 3.404 65.225 1.854 92.834-3.7 90.344-18.177 147.035-79.965 159.111-173.415 1.26-9.75 1.706-21.499 1.785-47l.104-34-106.75-.255-106.75-.254v-47.991h261l-.009 43.25c-.01 48.769-1.075 74.29-3.95 94.704-8.682 61.641-31.636 110.708-69.507 148.58-38.382 38.381-87.501 60.897-150.534 69.004-14.71 1.892-57.76 2.742-72.5 1.43zM1550 922.776V817.654h49V995.35l-4.235 1.902c-8.756 3.932-21.173 12.401-43.515 29.68-.998.772-1.25-20.209-1.25-104.156zm-74 38.078v-143.2h49v229.22l-7.658 8.14c-7.843 8.337-21.942 24.91-33.297 39.14-3.51 4.4-6.757 8.428-7.214 8.95-.457.522-.831-63.49-.831-142.25z" style="fill:#00b14f;fill-opacity:1" transform="translate(-23.653 -427.84) scale(.52325)"/><path d="M345.5 1421.049c-61.532-4.839-113.346-28.589-154.137-70.651-11.98-12.354-18.886-20.934-28.093-34.905-34.12-51.77-47.389-119.383-35.765-182.256 14.902-80.607 70.533-147.523 148.453-178.566 19.814-7.894 44.262-13.716 67.494-16.074 15.076-1.53 55.561-.674 71.548 1.513 51.474 7.04 97.426 22.942 134.245 46.458l8.745 5.586.005 23.715c.004 21.612-.15 23.798-1.754 24.656-1.377.737-4.476-.78-14.25-6.976-38.566-24.445-79.623-38.725-127.991-44.515-18.432-2.207-58.255-2.49-72-.513-88.385 12.715-151.346 76.293-162.54 164.133-3.047 23.91-.975 57.625 4.98 81 13.295 52.202 45.426 94.651 88.443 116.847 29.189 15.06 54.855 21.153 89.117 21.153 47.973 0 86.559-13.641 113.025-39.958 17.155-17.058 27.18-37.743 29.46-60.792l.718-7.25H368v-51h188v20.394c0 31.458-2.513 50.153-9.58 71.275-14.321 42.806-44.69 76.788-86.42 96.702-27.14 12.952-56.026 19.252-91.853 20.033-9.706.211-19.897.207-22.647-.01zm1361.194.545c-38.877-3.45-73.104-20.6-102.323-51.269-20.948-21.987-35.79-48.221-42.248-74.671-3.742-15.325-4.92-12.332 16.434-41.77 10.419-14.363 19.237-26.14 19.597-26.172.36-.032.946 4.78 1.304 10.692.904 14.961 2.25 24.12 5.255 35.75 13.342 51.638 50.843 88.953 97.616 97.131 12.417 2.171 33.754 1.381 45.671-1.69 43.072-11.102 71.714-43.658 82.646-93.941 2.64-12.142 2.659-47.812.031-59.768-5.355-24.372-15.808-44.942-30.927-60.858-21.603-22.742-49.942-34.374-83.75-34.374-43.39 0-74.95 17.602-116.582 65.017-40.701 46.358-108.296 132.266-142.28 180.829L1445 1383.846v-80.692l17.283-23.5c9.506-12.925 26.163-34.975 37.015-49 10.852-14.025 25.91-33.598 33.463-43.495 34.702-45.475 57.092-68.29 85.538-87.166 58.68-38.936 135.899-39.917 191.9-2.437 57.148 38.248 84.61 113.049 69.287 188.727-12.361 61.05-51.458 108.156-105.55 127.17-11.702 4.114-25.154 6.888-39.443 8.134-13.178 1.149-14.928 1.15-27.806.01zM1297 1356.532c0-108.763-.213-127.558-1.55-136.56-4.894-32.963-20.115-60.426-43.014-77.612-14.847-11.143-31.5-18.067-51.28-21.322-14.172-2.332-35.34-1.42-48.656 2.094-44.465 11.735-76.435 47.952-86.088 97.522-2.754 14.143-2.517 40.826.49 55 9.895 46.658 39.488 80.347 81.098 92.323 36.624 10.542 87.095 2.643 118.267-18.507l5.767-3.914-.267 25.776-.267 25.776-10 5.23c-25.3 13.23-64.954 21.671-93 19.798-53.688-3.587-96.896-27.96-125.647-70.876-30.607-45.687-38.431-111.991-19.815-167.912 24.594-73.873 93.554-118.995 172.212-112.68 42.651 3.424 74.683 17.732 102.788 45.914 25.98 26.05 39.915 54.18 46.598 94.072 1.603 9.567 1.79 22.119 2.107 141.25l.347 130.75H1297Zm-560.985-3.128c.015-132.562.434-150.327 3.957-167.615 9.05-44.403 35.389-79.72 73.895-99.08 9.115-4.584 28.06-10.631 39.133-12.493 33.379-5.611 68.072-.538 92.709 13.558l5.208 2.98-4.124 6.7c-2.268 3.685-7.23 13.113-11.028 20.95-3.797 7.838-6.985 14.25-7.084 14.25-.1 0-4.456-1.526-9.681-3.39-22.356-7.975-42.788-9.268-63.678-4.028-19.56 4.905-37.379 16.46-48.916 31.719-6.437 8.513-13.878 24.213-17.158 36.199l-2.737 10-.282 139.75-.283 139.75H736Z" style="fill:#00b14f;fill-opacity:1" transform="translate(-23.653 -427.84) scale(.52325)"/><path d="M663 1344.904c.002-137.657.239-148.787 3.602-169.25 10.367-63.067 43.374-114.53 92.638-144.439 46.831-28.431 108.961-38.16 168.76-26.423 21.298 4.18 47.773 14.48 64.095 24.935l6.594 4.225-11.7 11.6c-6.434 6.382-13.73 14.001-16.211 16.933l-4.513 5.332-5.882-2.967c-19.65-9.911-52.895-17.196-78.474-17.196-80.447 0-143.188 46.707-162.843 121.227-6.752 25.598-6.44 17.658-6.81 173.023l-.334 140.75H663Zm1036 151.131c-75.064-6.84-137.248-42.87-175.46-101.664-6.029-9.275-16.51-30.367-18.578-37.38l-1.227-4.164 17.383-23.645 17.382-23.644.88 3.308c11.25 42.265 35.921 78.217 70.7 103.028 10.813 7.714 30.464 18.152 43.483 23.097 32.678 12.412 68.894 15.4 104.164 8.593 22.946-4.428 50.194-16.09 69.273-29.647 11.734-8.338 33.492-29.932 41.409-41.096 19.357-27.298 32.097-59.746 37.227-94.814 2.351-16.072 2.371-48.5.041-64.411-8.133-55.523-33.407-100.197-74.177-131.115-34.313-26.022-82.651-39.524-128.765-35.967-69.82 5.385-117.932 37.142-187.143 123.528-7.1 8.862-25.725 33.212-41.39 54.112s-28.643 38.187-28.841 38.417c-.198.229-.36-15.981-.36-36.022v-36.439l16.767-23.478c35.543-49.766 50.923-68.783 75.199-92.978 25.281-25.198 45.511-40.123 72.533-53.515 22.705-11.251 44.53-18.017 71.5-22.164 16.182-2.489 55.819-2.489 72 0 55.124 8.476 98.99 30.82 136 69.273 36.246 37.659 57.95 84.378 66.154 142.406 1.802 12.744 1.807 59.203.01 72-5.834 41.499-19.29 78.733-39.574 109.5-37.646 57.105-92.488 92.395-160.087 103.015-9.67 1.52-46.837 2.747-56.5 1.866zm-543-.523c-108.37-9.923-192.027-86.097-212.906-193.858-3.954-20.407-4.594-28.069-4.594-55 0-32.984 2.223-50.018 10.053-77.018 20.496-70.682 72.562-129.265 138.947-156.339 31.71-12.932 59.238-18.135 95.5-18.05 35.169.084 61.078 4.642 90.5 15.921 31.4 12.038 56.762 28.762 80.58 53.136 34.645 35.452 55.276 78.122 64.199 132.782 2.09 12.805 2.14 15.809 2.467 149.318l.334 136.25H1371l-.01-125.25c-.01-77.763-.402-129.8-1.044-137.25-4.261-49.443-24.411-93.031-57.468-124.316-37.087-35.099-91.422-53.616-144.728-49.322-91.581 7.377-159.645 70.173-175.74 162.138-4.492 25.666-3.705 59.897 2.03 88.282 4.136 20.47 14.6 47.424 24.92 64.192 21.58 35.059 53.353 60.657 92.36 74.41 33.416 11.78 71.675 14.761 104.247 8.121 18.61-3.794 40.758-12.316 51.861-19.956l4.572-3.145v49.668l-5.75 3.792c-16.367 10.794-40.432 18.696-65.75 21.59-10.455 1.196-30.876 1.152-44.5-.095z" style="fill:#00b14f;fill-opacity:1" transform="translate(-23.653 -427.84) scale(.52325)"/></svg>