<svg xmlns="http://www.w3.org/2000/svg" viewBox="0 0 77 32"><path d="M10 19.3c.8-.7 2.2-1.7 2.2-5 0-4.4-2.3-6.4-5.4-6.4H0v23.8h6.8c3.8 0 5.7-2.8 5.7-7 0-3.8-1.6-4.8-2.6-5.4zm-6-7.7h2.2c1 0 2 .8 2 3 0 2.3-1 3-2 3H4v-6zm2.2 16.5H4v-6.7h2.2c1.5 0 2.3 1 2.3 3 0 2.8-.9 3.7-2.3 3.7zM28 23.8c0-3-1-3.8-2.3-4.5 1-.7 2.3-1.7 2.3-5 0-4.4-2.3-6.4-5.4-6.4h-6.8v23.8h4V21.3H22c1.1 0 2 1 2 3v7.4h4v-8zm-8.2-12.2H22c1 0 2 .8 2 3 0 2.3-1 3-2 3h-2.2v-6zM38.4 0c-1.7 0-6.6.4-6.6 5.2v26.5h4V21.4h5.1v10.3h4V5.2C45 .4 40 0 38.3 0zm-2.6 5.8c0-1.8 1.6-2 2.6-2 .9 0 2.6.2 2.6 2v11.9h-5.2v-12zM56.9 8v18.7c0 1-.8 1.6-2 1.6s-2-.7-2-1.6V7.9h-4v19.4c0 3.7 3.9 4.7 6 4.7s6-1 6-4.7V7.9h-4zm16 23.8V13c0-1-.9-1.6-2-1.6-1.2 0-2 .6-2 1.6v18.7h-4V12.4c0-3.7 3.8-4.7 6-4.7 2 0 6 1 6 4.7v19.4h-4z"/></svg>
