<svg xmlns="http://www.w3.org/2000/svg" viewBox="0 0 51.1 56.7"><path fill="#003764" d="M33.6 26.8v-.2c5.7-.8 9.7-2.5 12-5 2.3-2.6 3.4-5.3 3.4-8.3 0-3.5-1.5-6.6-4.5-9.3-3-2.7-7.9-4-14.8-4H1.4C.6 0 0 .6 0 1.4c0 .8.6 1.4 1.4 1.4h5.7v51.1H1.4c-.8 0-1.4.6-1.4 1.4 0 .8.6 1.4 1.4 1.4h27.5a27 27 0 0 0 16.6-4.3c3.7-2.9 5.6-6.7 5.6-11.4 0-8-5.8-12.7-17.5-14.2zM20.8 2.7h4.4c3.9 0 6.3.8 7.5 2.3 1.1 1.5 1.7 4.5 1.7 9 0 5.3-.7 8.6-2.1 9.7-1.4 1.2-4.2 1.7-8.3 1.7h-3.2zm12.9 48.7c-1.4 1.6-4.6 2.5-9.6 2.5h-3.2V28.2H25c3.9 0 6.6.8 8.3 2.4 1.7 1.6 2.5 4.8 2.5 9.5 0 5.9-.7 9.7-2.1 11.3z"/></svg>
