<svg xmlns="http://www.w3.org/2000/svg" viewBox="0 0 190 110.5"><g fill="#ed1a37"><path d="M168.2 45.9c-.8 0-1.5.7-1.5 1.6a1.6 1.6 0 1 0 1.5-1.6m-28.6 4.4c-1.2 0-2.2.4-3 1.6-.4-1-1.5-1.6-2.8-1.6a3.3 3.3 0 0 0-2.7 1.4v-.6c0-.3-.3-.5-.6-.5h-1.3c-.3 0-.6.2-.6.5v8.4c0 .3.2.6.5.6h1.5c.3 0 .6-.3.6-.6v-5c0-.2 0-.6.3-1.1.3-.5.8-.8 1.4-.8 1.2 0 1.7.8 1.7 1.8v5.1c0 .3.3.6.6.6h1.4c.3 0 .6-.3.6-.6v-5c0-1 .6-1.9 1.7-1.9 1.2 0 1.7.8 1.7 1.8v5.1c0 .3.2.6.6.6h1.3c.3 0 .6-.3.6-.6v-5.6c0-2.5-1.7-3.6-3.5-3.6m7.4 3.9a2 2 0 0 1 2.1-1.8c1.5 0 2.1.9 2.2 1.8zm2-4c-2.3 0-4.6 2-4.6 5 0 3.3 2.3 5.2 5 5.2 1.5 0 2.7-.7 3.5-1.6l.6-1c0-.3-.1-.5-.4-.6l-1-.3c-.5-.1-.6 0-.8.2-.4.6-1 1-2 1-1.2 0-2.3-.9-2.3-2.1h6.3c.3 0 .4-.2.5-.4v-.4l-.1-1c-.4-2.5-2-4-4.6-4M160 58c-1.4 0-2.4-1-2.4-2.7 0-1.7 1-2.7 2.4-2.7 1.3 0 2.3 1 2.3 2.7 0 1.7-1 2.7-2.3 2.7m4.8-11.4c0-.3-.3-.5-.6-.5h-1.4c-.3 0-.6.2-.6.5v5c-.2-.6-1-1.2-2.6-1.2-2.7 0-4.6 2.1-4.6 4.9 0 2.9 2 5 4.6 5 1.3 0 2.3-.6 2.7-1.3v.5c0 .4.2.6.5.6h1.5c.4 0 .5-.2.5-.4V46.6m13.6 8.7c0 1.7-1 2.7-2.4 2.7-1.3 0-2.3-1-2.3-2.7 0-1.7 1-2.7 2.3-2.7 1.3 0 2.4 1 2.4 2.7m-7.3 0c0 2.9 2 5 4.6 5 1.3 0 2.2-.6 2.7-1.3v.5c0 .4.1.6.5.6h1.5c.4 0 .5-.2.5-.4V51c0-.3-.3-.5-.6-.5h-1.4c-.4 0-.6.2-.6.5v.4c-.2-.5-1-1.1-2.7-1.1-2.6 0-4.5 2.1-4.5 4.9m-2.1-4.6h-1.5c-.3 0-.5.2-.5.5v8.4c0 .3.2.6.5.6h1.5c.3 0 .5-.3.5-.6v-8.4c0-.3-.2-.5-.5-.5M31.5 58.9v-.5l.1-.1v-1.2h.1l.1-.1v-.1s.1-.1 0-.2v-.1l.1-.1v-.9l.1-.2v-.1h.1v-.5l.1-.1v-.4l.1-.1v-.4h.1v-.4l.1-.3V53l.1-.1v-.4l.1-.1v-.2l.1-.1v-.3l.1-.1v-.3h.1V51l.1-.1v-.4h.1v-.3h.1V50l.2-.1v-.4h.1v-.3l.2-.2v-.3l.1-.1v-.1l.1-.2v-.2h.1l.1-.2h.1l.1-.1v-.2h.1v-.1l.1-.1v-1s.1 0 0 0l.1-.2v-.3c0-.1.1-.2 0-.2v-.1l.2-.1V45l.2-.3.1-.3V44l.2-.2v-.5h.1l.1-.2V43h.2v-.4s-.1-.1 0-.2V42h.1v-.1l.1-.1v-.3l.1-.2V41h.1v-.5h.1v-.4l.1-.2h.1v-.2l.1-.1v-.4l.1-.1V39h.1v-.4l.1-.1v-.2l.1-.1v-.1l.1-.1h.1v-.4h.1v-.3h.1v-.2l.1-.1v-.3h.1v-.2l.1-.2s.1 0 0-.1l.3-.3v-.2l.2-.2v-.2h.1v-.1l.1-.2v-.5l.2-.2v-.2l.1-.2.1-.2v-.2l.1-.1v-.1l.2-.2v-.4l.2-.3c0-.2.2-.4.3-.5l.1-.4v-.2l.2-.1V31l.1-.2.1-.2v-.1l.1-.1v-.1l.1-.1v-.1l.1-.2.1-.2.1-.2h.2v-.3l.1-.1h.1V29h.1v-.2h.1l.1-.2v-.1l.2-.2.2-.3h.1v-.1l.1-.1v-.1l.1-.1.1-.1v-.1h.2v-.2h.1V27h.2v-.1l.2-.2h.1v-.1h.1v-.1l.1-.1v.1h.1c.1-.1 0-.2 0-.2l.1-.1c0-.1 0 0 0 0h.1V26c.1 0 0 0 0 0h.4l.1-.2s0-.1.1 0v-.4l.1-.2h.1V25h.1l.1-.1.1-.2.1-.1v-.1c.1 0 0 0 0 0l.2-.2v-.5l.1-.1v-1.3l-.1-.1v-.2l-.1-.2v-.1h-.1v-.1l-.1-.2-.1-.1-.2-.2v-.1H44V21h-.2v-.1h-.1l-.2-.1-.2-.1-.2-.1h-.2v-.1h-.4l-.1-.1H41l-.1.1h-.2l-.7.6-.2.1h-.1v.2l-.2.1-.1.2-.2.2-.1.2-.3.3v.2l-.3.4-.1.3c-.2.2-.2.5-.3.7l-.2.4-.2.4-.1.5-.2.4c0 .3-.2.5-.3.8l-.2.4-.1.5-.3.8-.1.2-.1.4-.3.6-.2.7-.3.9-.2.3-.1.4-.2.5-.2.6-.3.6-.3.9-.6 2-.1.1v.2l-.2.2v.2l-.2.4c0 .2 0 .4-.2.6v.3c-.1.2-.3.3-.3.5l-.1.4-.1.4c0 .1-.2.3-.1.4l-.1.3-.1.4-.2.5v.4l-.1.2-.1.3v.2l-.1.3-.4 1v.6l-.3.6-.2 1-.1.5v.2l-.1.2v.3l-.3.5c0 .4-.2.7-.3 1.1l-.2.9v.4l-.2.4v.5l-.2.1v.5l-.2.6-.2.8v.4l-.2.9-.1.4-.1.4c0 .1-.2.3 0 .4-.2.1-.2.3-.2.4v.4l-.2.6v.5l-.2.4v.6l-.3 1.3v.5l-.2.9v.3l-.1.6L27 63v.4c0 .6-.2 1-.3 1.6v1.2l-.1.2v.3l-.1.5-.1.1v.2c-.2 0-.2-.1-.1-.2h-.2v-.1c-.1-.1 0 0 0-.2v-.3l-.1-.1v-.1c0-.2 0-.2-.2-.2v-1.1l-.1-.3v-1l-.1-.2v-.1h-.1v-.2l.1-.1h-.2v-1h.1V62c.1 0 .1 0 0-.1v-.4l-.1-.1s-.1 0 0 0v-.2h-.1V61l-.1-.3V60h-.1v-.2l-.1-.2v-.2c0-.1-.1-.1 0-.2V59l-.1-.2v-.4l-.1-.1V58h-.1v-.3s-.1 0 0-.1h-.2c0-.1.1 0 0-.1v-.4l-.2-.1v-.6l-.1-.5v-.2l-.1-.2V55H24v-1s.1 0 0 0v-.6l-.1-.1v-.6h-.2v-.1h.1v-.1s-.1-.1 0-.2l-.1-.2V52l-.1-.2v-.4h-.1v-.7l-.1-.2V50h-.1v-.5l-.1-.2v-.5l-.1-.1v-.5L23 48v-.4l-.1-.1v-.6l-.1-.1-.1-.3-.1-.1V46l-.2-.1v-.1l-.1-.1h-.1l-.1-.2-.2-.1-.2-.1-.2-.1h-.3l-.2-.1h-.7v.1H20l-.1.1h-.2l-.2.3-.2.1-.2.3-.2.4-.1.5v.1l-.1.1v.3h-.1v.1l-.1.2v.1l-.2.6v.1l-.1.1v.3l-.2.2-.2.8-.1.2-.1.3v.3l-.2.2-.1.4-.1.2v.3l-.1.3-.2.5-.2.5v.2l-.2.3v.5l-.2.6-.3.4v.3l-.1.3c0 .1 0 .3-.2.4 0 0-.2 0 0 .2-.1 0-.2 0-.1.2l-.1.2v.2l-.3.7-.3.7v.3l-.1.2v.2h-.1l-.1.3v.2l-.1.2-.2.4-.1.5c-.1.3-.3.6-.2.9l.1.5.6.6.4.1h1v-.1h.2l.3-.2.2-.2v-.1h.2v-.2l.1-.1v-.2l.1-.1v-.2l.1-.1v-.1l.2-.2v-.1l.1-.2v-.1l.1-.1V60l.2-.2.2-.1H18v-.2c.1 0 0 0 0-.1h.1v-.2h.1V59c.1 0 .1 0 0-.1v-.1l.1-.1s.1-.1 0-.1v-.1h.1v-.4h.1v-.4l.1-.1.1-.2v-.3h.1V57h.1v-.2l.1-.1v-.2c0-.1 0 0 0 0 .1 0 0 0 0-.1h.1V56h.2v-.2l.1.1v-.1h.1v-.2h.1v-.2l.1-.2.1-.2h.1v.1h.2v.1l.2.1v.4h.2c.1 0 0 0 0 0V57l.2.1v.1c0 .1 0 0 0 0l.1.2v.4-.1.2l.1.1v.4l.1.2v.2l.1.3v.6l.1.2v.3l.1.2v.9s0 .3.1.2v.1h.1v.7l.1.2v.5l.1.5v.4h.1v.4l.1.2v.6l.1.1v.6l.1.2v.4l.1.2v.6l.1.2v.2s.1 0 0 .1v.1l.1.2v.5h.1v.5c.1 0 0 0 0 0l.1.2v.6c.1 0 0 0 0 0l.1.2v.6h.1v.5h.1v.4l.1.3v.4l.1.1v.7s-.1 0 0 .1l.1.2v.2c.1 0 0 0 0 0v.2h-.1v.1h.2v.4l.1.1v.3h.1v.7c.1 0 0 0 0 0l.1.1v.6l.1.2v.2l.1.2v.5h.1v.4l.1.3v.4c.1 0 0 0 0 .1h.1v.4l.1.2v.5l.1.1v.4h.1v.6h.1v.4l.1.1v.2h.1v.5h.1v.2h.1v.1l.1.1v.1h.1v.1h.1l.1.1.1.1h.2l.1.1h.2l.1.1h.7l.3-.2.1-.1h.1l.2-.2h.1V82h.1v-.2h.1v-.1l.1-.1v-.3h.1V81h.1v-.3l.1-.3v-.6h.1v-.4l.1-.2v-.6l.1-.2v-.5l.1-.2v-.4h.1v-.8s.1 0 0-.1l.1-.2v-.5l.1-.2V75l.1-.1V74l.1-.1v-.6l.1-.2v-.6h.1v-.9l.1-.2V71l.1-.2v-.6h.1v-.8c.1 0 0 0 0 0l.1-.1v-.1l.1-.1v-.2l.1-.1v-.4h.1s.1 0 0 0h.1v-.1h.1V68H30l-.1-.2v-.9l.1-.1V66s.2 0 .1-.1v-.1l.1-.1.2-.1v-.5h.1v-.4h.1v-.5h-.2v-1l.1-.1v-.5h.1v-.5l.1-.1c.1 0 0 0 0 0v-.5h.1v-.1l.1-.3v-.7l.1-.3V60h.1v-.4l.1-.1V59h.1v-.1"/><path d="M40.7 47.1v-.2l-.1-.2v-.2l-.1-.1v-.2h-.2V46H40c0-.1-.2 0-.2 0h-.6l-.2.2-.2.1h-.2v.1l-.4.3-.2.2-.1.2-.2.1-.2.3-.1.1v.4h-.1v.1l-.1.1v.1l-.1.2v.4H37v.4l.1.2s0 .1 0 0v.1h.2v.2l.1.1h.2v.1h.2l.2.1h.2l.1-.1h.1l.2-.1.1-.1.2-.1.1-.1h.1v-.1h.1l.1-.1h.1v-.1l.2-.1.1-.1.1-.1h.1l.2-.2v-.2l.2-.1v-.1l.1-.1v-.1l.1-.1.1-.1v-.2h.1V47m4 4.4h-.4l-.3.2h-.1l-.1.1h-.2v.1h-.1v.1h-.1l-.4.3-.1.2-.1.1v.1l-.1.1-.1.2-.1.2v.2c-.1 0-.1.1 0 .2-.2 0-.2 0-.2.2v.3l-.1.5V56l-.1.5V58l-.1.2v.7l-.1.2-.1.2v.9l-.1.1V63l-.1.2V65l.1.1v.2h.1v.1l.1.2.1.1h.1v.2h1.2l.2-.1h.3c0-.1 0-.2.2-.2l.1-.1h.1v-.1h.2v-.1h.1l.1-.1h.1V65l.3-.2.1-.2.1-.2.1-.1.1-.2.1-.2v-.4l.1-.3v-.8l.1-.2v-2.5l.1-.1V58l.1-.1v-.2c.1-.1 0-.2 0-.2l.2-.1v-.6l.1-.1v-.3l.1-.1V56l.1-.1v-.4l.2-.1v-.2l.2-.2.1-.2.2-.2.1-.2.1-.1h.1v-.1h.1v-.1h.1l.1-.1.1-.1.1-.1.2-.1h.1l.2-.2v-.1h.1v-.1h.2l.2-.2V53h.1l.1-.1.3-.3v-.2h.1l.1-.2.1-.3v-.8h-.1V51l-.1-.1v-.1l-.1-.2-.2-.2H49l-.1-.2h-1v.1h-.2v.1h-.2v.1h-.2l-.2.1v.1h-.4l-.1.1h-.1l-.2.1-.1.1H46l-.3.2h-.3l-.4.1h-.4v.1m22.2-14.6v.3l.3.3h.3c0 .2.2.1.3.2h.7l.2-.2h.2l.1-.1.1-.1.2-.1.2-.3.1-.1.1-.1.1-.2.2-.1V36l.2-.1v-.1l.1-.1.1-.1v-.2l.1-.1v-.2h.1v-.6l-.1-.1v-.2h-.1v-.1h-.1V34h-.4c-.1-.1-.1 0-.2 0h-.8l-.1.1h-.2l-.1.1-.2.1-.1.1H68l-.1.1-.1.1h-.1l-.1.2h-.2v.1l-.1.1-.1.2H67v.2l-.2.2v.4h-.1v.3h-.1v.6m-2 17.6.1.2.2.1v.1h.3l.3.1h.2l.4-.1.4-.2.3-.2h.1l.2-.2h.1l.1-.1.2-.2.2-.2.2-.2.1-.2v-.1l.1-.1.1-.2v-.4l.1-.1v-.4l-.1-.2v-1.8h.1v-.4l.2.1v-.3h-.2v-.2h.1c0 .1 0 0 0 0v.1h.2v-.2h-.2v-.7h.1v-.2h.1V45h-.1v-.4h.1v-.4c.1 0 0 0 0 0 .1-.1 0-.1 0-.1h.1-.1V44h.1v-.4h.1v-.4c0-.1 0 0 0 0v-.1l-.1-.1.1-.1v-.4h.1V42h-.1v-.2h-.1v-.5c-.1 0 0 0 0 0l-.1-.1-.1-.1h-.2V41h-1v.1H67v.1l-.1.1-.1.1-.2.2h-.1l-.1.1-.2.2v.2H66l-.1.2-.2.2v.4l-.1.1v.2l-.1.1v.5h-.1v.7l-.1.2v.5h-.1v1.1l-.1.1v.9H65v2.1h-.1v.9l-.1.3v.7h-.1v1l-.1.3v.7l-.1.5v.6l.1.2"/><path d="M91.6 46.7c-.1 0 0-.1 0-.1v-.2c.1 0 0 0 0 0 0-.1 0 0 0 0V46l-.1-.2-.1-.2-.1-.1v-.1l-.1-.1H91v-.1l-.1-.1h-.2V45c-.1.1-.1 0-.2 0v.1h-.7l-.1-.1h-1l-.2.2h-.1c-.1 0-.3 0-.4.2h-.2v.1h-.1l-.2.1-.2.1-.2.1-.1.1-.3.1-.1.1-.2.1-.2.1h-.1l-.2.2h-.2v.1h-.2v.1h-.3l-.2.2-.2.1h-.3l-.4.2h-.2l-.1-.2-.1-.1h-.2v-.2l-.1-.1v-.2h-.2v-.2l.2-.1V46h-.2v-.2c-.1 0 0-.1 0-.1h-.1v-.1c0-.1-.1-.1 0-.2V45l-.1-.2h.1v-.1c-.1 0 0 0 0 0v-.3.1H83v-.2h.1v-.5s0-.1 0 0c.1 0 0 0 0 0h.1v-.2l-.1-.1v-.1s.1-.1 0-.1c-.1-.1 0-.1 0-.2H83V43l.1-.1v-.3H83h.1v-.3l-.1-.2v-1.4h.2l-.1-.1v-.2h.1v-.1l-.2-.1v-.3h.4v-.4c-.1 0-.2 0-.1-.1V39h.1v-.5h-.1c0 .1 0 .2-.1.1v-.9h.2c0-.1 0 0 0 0l-.1-.1v-.4L83 37v-.3h.1v-.2H83v-.4c0-.1 0 0-.1 0v-.2h-.1v-.2c0-.2-.1 0-.2 0v-.2h-.2v-.1l-.5-.2h-.3l-.3-.1h-.5l-.1.1h-.4l-.2.2H80l-.2.1-.2.1-.4.3H79l-.2.2v.1l-.2.1-.1.2-.2.1v.1H78c0 .2-.2.3-.3.4v.1l-.2.2-.1.1h-.1v.2H77l-.2.2h-.2l-.1.1h-.8l-.1-.1h-.4l-.1.1H74l-.3.1-.1.1-.3.1-.2.1-.1.1v.1h-.1l-.1.2-.2.2-.1.2-.2.1v.2l-.2.2v.3l-.2.4v.6l-.1.5V43h-.1v2.1c-.1 0 0 0 0 .1-.1 0 0 .2 0 .2v.1l-.1.2v2l-.1.2v1.5l-.1.2v1.6h.1v.2c.1.2.2.2.3.2 0 .1.1.2.3.2h.9l.3-.1.2-.1.2-.2h.1l.2-.1h.1l.1-.1.2-.1V51l.1-.1h.1l.2-.2v-.4h.1V50c.2 0 0-.1.1-.2h.1v-.1c.1 0 0 0 0 0l.1-.1V49H75l.1.2v-.5l.1-.2v-.1c0-.1-.2 0-.2-.2h.2l-.1-.2s-.1 0 0 0v-.5l.1-.2h-.1c0 .1-.1.1 0 0l-.1-.1v-1h.2V46l-.1-.1v-.1c-.1 0 0-.2 0-.2.1 0 0 0 0 0v-.1s0-.2 0 0c.1 0 0 0 0 0 .1.1.2 0 .2 0h.1v-.2l-.1-.2V45l-.1-.2v-.2s.1 0 0 0v-.2s.2 0 .1-.1c.2 0 .1-.1.2-.2V44l-.1-.1v-.3h-.1l.1-.2h.2v-.1h-.2l.2-.1V43c-.1 0-.2 0-.2-.2h.1v-.1s.2 0 0 0h.1l.2-.1h-.2v-.2h.2v-.7l.1-.2V41h.2l.2-.2v-.2h.1l.1-.1.2-.2h.1v-.1c.2 0 .1-.2.2-.3h.1v-.2l.1-.1h.1l.1-.1.2-.2h.2V39h.2l.2-.1h.8l.4.3v.2h.1v3.4c-.1 0 0 0 0 0l-.1.2v1.4c-.1.1 0 .1 0 .2V46l-.1.2v2l.1.2.1.2.1.2.2.2.2.1.2.1v.2l-.2.1-.3.2-.1.1-.2.1h-.1l-.1.1-.2.1-.3.2-.4.2-.9.5-.2.1-.1.1H77l-.5.3-.1.1h-.1l-.1.1-.3.2-.2.1h-.1l-.2.1-.4.3-.4.2v.1h-.4v.1l-.5.3-.5.2-.2.2-.4.3h-.2l-.1.2H72l-.2.2-.5.3h-.1l-.2.1v.1h-.2v.1h-.1l-.1.1h-.1l-.1.2h-.2c0 .1 0 0 0 0l-.3.2-.2.1h-.3v.1l-.2.2h-.1l-.2.2-.3.1h-.2l-.2.2-.2.1v.1h-.1l-.2.2-.2.1h-.2l-.1.2-.2.1-.2.1-.2.1-.2.1-.2.1-.1.2-.6.3c-.2 0-.3.2-.5.3l-1 .6-.6.4-.1.1h-.1l-.1.1-.2.1-.2.1-.2.1v.1h-.2l-.2.2H62l-.1.1v.1h-.1l-.2.1v.1h-.1l-.2.1v-2.8c.1 0 0 0 0-.1v-.1l.1-.2v-1.8h.1c-.1 0 0-.2 0-.2v-1.9h.1v-1l.1-.8V51l.1-.2v-1.7c.1 0 .3 0 .2-.1-.1 0 0 0 0-.1 0 0-.1-.1 0-.2v-.4l.1-.1v-.3s-.1 0 0-.1v-.9s.1 0 0 0v-.4l.1-.1V46s-.1 0 0 0c-.1 0 0 0 0-.1l-.1-.1v-.6h.1L62 45v-.2l-.1-.1-.1-.1-.2-.2-.4-.2H60l-.1.1h-.2s0 .2-.1.1l-.2.1-.1.1-.2.2-.1.1-.1.2-.2.3v1l-.1.1v1l-.1.2v.8a6.3 6.3 0 0 0 0 .7l-.1.2v.8l-.1.2v.9l-.2.1v2l-.1.2v.6l-.1.3v.5l-.1.3v.2l-.1.5v.2l-.1.3-.4.9-.1.1-.3.3v.1h-.1l-.1.1-.2.1-.1.1H56v.1h-.2l-.4.2H55l-.1-.1h-.2l-.1-.3-.2-.2v-.2l-.2-.5v-1.8l.1-.5v-.7h.1V54l.1-.2v-.2l-.1-.1v-.9l.1-.2v-.2l.1-.2.1-.3v-.3l.2-.3.2-.2v-.3l.1-.3s0-.1.1 0v-.2c.1 0 0-.1 0-.2h.2v-.1l.1-.2v-.1l.1-.1c.1 0 .2 0 .2-.2l.1-.2.2-.2.1-.1.1-.1h.1l.1-.2v-.2h.2V48l.1-.1v-.2l.1-.1v-.1l.1-.2v-1H57v-.1h-.4l-.1-.1h-1l-.2.1-.2.1H55l-.2.2h-.1l-.1.2h-.1s0 .2 0 0l-.1.1h-.1l-.1.1c-.2 0-.3.2-.4.3l-.3.3h-.1l-.1.2h-.1v.2l-.2.2h-.1v.2l-.2.2-.1.2h-.1v.1l-.1.2-.1.1v.1h-.1v.1l-.1.1v.1l-.1.1-.1.2-.1.2v.1l-.2.3v.2l-.1.2-.1.2v.1l-.1.2v.3l-.1.2v.2l-.1.4v.2l-.1.1v.8l-.1.2v.6l-.1.5v.7l-.1.2v.4s-.1.1 0 .2l-.1.3v2.9l.1.2v.2l.1.4v.2l.1.3s.1.1 0 .1l.1.2h.1v.2l.1.1.2.3.2.1v.1l.4.2h.3v.1l.1.1h.5l.2.1h1.3l.3-.2h.7-.2l.2-.1h.3v-.2h.5l.1-.2h.3v-.1l.1-.2h.2v-.1h.2l.1-.1.1-.1.1-.1h.1c.2 0 .2.2.2.2V63l-.2.2h-.1l-.1.1h-.1l-.2.2-.3.2-.1.1-.2.2c-.3 0-.4.2-.6.4l-.2.1-.1.1h-.1v.1h-.1l-.2.2-.4.3-.5.4c-.1 0-.3.3-.5.3v.1l-.2.1-.2.1-.1.2H53v.1l-.1.1h-.1l-.2.1-.1.2h-.2v.1l-.2.1v.1h-.2l-.1.1-.1.1h-.1l-.2.3-.3.2-.3.2h-.1v.1h-.1v.1l-.3.1-.1.1H50v.2h-.2l-.2.2h-.1v.1l-.3.2h-.1l-.1.1-.2.1-.2.2-.2.1-.2.1-.2.2-.1.1v.1l-.2.1v.1h-.2l-.1.2-.2.1-.2.2-.2.1-.2.2-.2.2-.2.1-.5.4-.4.3-.2.2-.1.1-.2.1-.3.3-.4.3-.2.2s-.2 0-.2.2h-.1l-.3.2-.1.2H43l-.1.2-.3.3c-.2 0-.3.2-.5.4l-.2.2-.2.1-.2.2-.4.4c-.2 0-.4.3-.5.4h-.2v.2h-.2v.1l-.3.2v.1l-.3.2-.2.2-.2.1-.2.1v.1l-.3.2-.2.2-.4.4-.2.1-.2.2-.1.1-.1.1-.2.2h-.1l-.1.2H37l-.1.2h-.1v.1h-.1l-.2.2-.4.4-.2.2-.2.2-.4.4-.5.4-.1.2-.2.1-.2.2-.2.2-.4.3-.3.4-.5.5-.2.2-.2.2c0 .2-.2.3-.4.4l-.2.4-.2.2-.2.3v.1l-.1.3v.6l.1.2v.1l.2.3.1.2.1.1.2.2.4.2h.2l.2.1.3.1h1l.1-.1h.2v-.1h.1v-.1l.2-.1.2-.1.2-.2v-.1h.1l.1-.1v-.1c.2 0 .2-.1.3-.2l.2-.2.1-.1.1-.2.2-.1.1-.1.2-.2.1-.1.1-.1V85h.1l.1-.2h.1l.2-.2v-.1l.2-.1.1-.2.1-.1v-.2h.2v-.1h.1v-.1l.2-.1.2-.2.1-.1.2-.2.1-.2h.2v-.3h.2v-.1h.1l.1-.2.1-.1h.1l.2-.2.1-.2.1-.1.2-.2.1-.1c.2-.1.2-.2.3-.4l.3-.3.2-.2.1-.1h.1l.1-.2.2-.1V80l.2-.2.2-.2.1-.2c.1 0 .2 0 .3-.2l.2-.1.1-.1.2-.1.1-.2.1-.1h.1v-.1l.2-.2h.1v-.1l.2-.2.1-.1.1-.1h.1l.1-.2.1-.1v-.1l.2-.1.1-.1h.1V77l.2-.1.1-.2h.2v-.1l.1-.1h.2v-.2h.2c0-.2.2-.2.3-.3l.2-.2.1-.1.1-.1h.1l.2-.2.2-.2.3-.3h.1l.3-.2.2-.2.3-.3.2-.2h.2l.2-.2.2-.2.1-.1.2-.1.1-.2h.1l.2-.2.2-.1v-.1h.1l.1-.1.1-.1.2-.2.2-.1.1-.1.1-.1.1-.1h.2v-.1h.1l.2-.2.4-.3v-.1h.1l.2-.2.2-.1.1-.1.1-.1h.1l.1-.2.2-.1.1-.1h.1v-.1l.2-.1.2-.2h.1v-.1h.2v-.1h.1l.1-.1v-.1h.1l.1-.1.1-.1h.1l.1-.1.1-.1.2-.2c.1 0 .1-.2.2-.1l.1-.1.2-.2.2-.1.1-.1h.1v-.2h.2l.1-.1.2-.2.2-.1v-.1l.2-.1.2-.1.2-.1v-.1h.2l.1-.2h.2l.1-.1.2-.1V76h-.2v.2h.1v5.2l-.1.3v1.5a5 5 0 0 0 0 .4v.7l-.1.1v3h.1v.4h.1v.2l.1.3v.1h.1l.1.3.1.1.1.1.1.1.2.2h.2l.2.2.5.1h1.5l.1-.1.6-.4.1-.2.2-.2v-.1l.1-.2v-.1h.2V88h.1-.1l-.1-.1v-.2c0-.1.2 0 .2-.2H62v-.1l.1-.1.1-.1V87H62v-.4l-.1.1v-.1h-.1v-.2h.1v-.2h-.2v-.1h.2V86h.1c-.1 0 0-.1 0-.1.1 0 0 0 0 0h.1l-.1-.1-.1-.1c-.1-.1-.1 0-.2 0 0 0 0-.2.2-.1v-.1c-.1-.1-.1 0-.1 0v-.2h-.1v.1h-.2v-.2l-.1-.1v-.4c0-.1 0 0 .1 0l.2-.1-.2-.1h-.1c-.1 0 0 0 0 0h.2v-.2h.1v-.1l.1-.2c-.1 0 0 0 0-.1h-.1v-.2h-.1v-.2h-.1V83s0-.1 0 0h-.4l-.1-.1v-.2h.1v-.4c0-.1.1-.1.1 0 0 0 0 .1 0 0V82c0-.1.1-.1 0-.2 0 0-.2 0 0-.1v-.1h-.1v-.3c.1 0 0 0 0 0H61v-.2c.2 0 0-.1.1-.2h.1v-.1c0-.1 0 0-.1 0v-.1H61v-.1l-.2-.1.1-.2v-.2l.1-.1h.1v-.1H61v-.4c-.1 0 0 0 0 0l-.1.1h-.1v-.2c-.1 0 0 0 0-.1s.2 0 .2 0v-.1l-.1-.1V79h-.1v-.2c-.1 0 0 0 0-.1v-.2h.2v-.4h-.1V78c0-.1 0-.1 0 0v-.1l-.1-.1v-.1c-.1 0 0 0 0-.1v-.1l.1-.1v-.2h-.1.1l.1-.1v-.2c-.1-.1-.2-.1-.1-.2h.1l-.1-.1v-.1h-.1v-.1h.2v-.2h-.2s.1 0 0 0c0-.1 0-.1 0 0V76c0-.1 0 0 0 0v-.4l.1-.1h.2c0-.1 0 0 0 0l-.1-.1v-.2h-.1v-.4h.1-.1v-.2s.1 0 0 0v-.4h.1V74l-.1-.1v-1.3l.1-.1v-.1s-.1 0 0 0v-1.1h-.1v-.2h.2V71c0-.1 0 0 0 0v-.1H61s-.1 0 0 0v-2.8c-.1 0-.1-.1 0-.2v.1h.1v-.2H61v-.5h.1v-.4H61v-.5h.1v-.1H61V66h.1l.1-.1-.1-.1V65c.1 0 .1 0 0 0v-.3l.1-.1v-.3h.1v-.2h.3l.1-.1h.1v-.2h.1v-.1h.1l.1-.1h.1v-.1h.1v-.1h.1l.1-.1.1-.1h.1v-.1h.2V63h.2c.1 0 .2-.3.3-.2l.1-.1h.1l.1-.1.2-.1v-.1h.2l.1-.2.2-.1h.2V62l.2-.1h.2v-.2l.2-.1.2-.1.2-.2.3-.1V61h.2l.1-.2.2-.1.2-.1.2-.1.1-.1.3-.2h.1l.1-.1h.1V60h.2v-.2h.3c.1-.2.3-.2.4-.3l.2-.1.2-.2.4-.2.2-.1.2-.1.3-.2.2-.1.1-.1.2-.1.2-.1.2-.1.2-.1.2-.2h.2v-.1h.1v-.1h.2l.2-.2.2-.1h.1l.1-.1.2-.2.4-.2h.1l.2-.1.3-.2.2-.1h.2l.1-.2h.1l.2-.1.1-.1h.1s0-.1 0 0l.2-.2.3-.1v-.1h.3v-.1l.3-.2h.1v-.1h.3l.1-.2h.1l.3-.1v-.1h.4v-.1l.3-.2h.2v-.1h.1l.3-.2.2-.1.2-.1.2-.1.3-.2h.2v-.1h.2v-.1l.3-.1.1-.1h.1l.3-.2h.1l.2-.2h.2a2.5 2.5 0 0 0 .3-.2l.2-.1.2-.1.2-.1.2-.2h.3v-.1h.1l.3-.2h.2l.2-.2h.2l.2-.2h.2l.2-.1h.2v-.1l.2-.1h.2l.2-.2h.2l.2-.1.1-.1h.2l.1-.1.2-.1h.2l.5-.3h.2l.6-.2.5-.2h.3l.2-.1.5-.2h.3l.3-.2.5-.2h.1l.4-.3h.2l.4-.4.2-.1v-.1h.1l.2-.2.1-.2.1-.1v-.1l.1-.1h.2s-.1-.1 0-.2v-.2s0-.1.1 0V47h.1v-.2h.2v-.2M39.2 56l-.2-.2v-.6l-.2-.3-.1-.1-.2-.2h-.9l-.8.4-.2.1-.2.2-.2.1-.1.2-.3.3-.2.4-.4.8v.3c-.1 0 0 .3-.2.3.1.2 0 .3 0 .4v1.1l-.1.5v.5l-.1.2v.9l-.1 1v.9c-.2-.2 0 .2 0 .3l-.1.2v.7l-.1.5v2c-.1 0 0 0 0 .2l-.1.4v1.8l.1.2.1.1v.1h.2l.2.1.4.1h.5v-.1h.1a8 8 0 0 0 .5-.3l.2-.2.2-.1.1-.1.3-.3s0-.1.2 0l.1-.1.1-.2h.2l.1-.2c0-.2-.1 0-.2 0v-.5l.1-.3V67h.1v-.5l.1-.1V64l.1-.3v-.4l.1-.2v-.4l.1-.1v-1h.1v-.4l.2-.1v-1.7l.1-.2V59c.1-.1 0-.2 0-.2l.1-.1v-.9l.2-.3v-.8l-.2-.3V56l.3-.1"/><path d="M175.3 82.9a19 19 0 0 1-12.5 4.4c-7.5 0-15-3.6-20-6.6A92.8 92.8 0 0 1 118 55.2c9-12.5 16.5-20 25-25.4 5-3 12.4-6.6 19.9-6.6 4.8 0 9 1.5 12.5 4.4 7.8 6.6 10.6 18 10.6 27.6 0 9.7-2.8 21.1-10.6 27.7M73 95.9a64.6 64.6 0 0 1-31.6 10.5c-7.7 0-14.5-2.4-20.3-7.1-12.5-10.5-17-28.9-17-44 0-15.2 4.5-33.6 17-44A30.8 30.8 0 0 1 41.4 4c12 0 23.8 5.7 31.6 10.4 13.4 8.6 25.8 21 39.9 40.7A148.2 148.2 0 0 1 73 96m105-71.5a22.5 22.5 0 0 0-15.1-5.3c-8.4 0-16.6 3.9-22 7.2a95 95 0 0 0-25.4 25.4S97.6 25.1 75.2 11.1A67.5 67.5 0 0 0 41.4 0C32.7 0 25 2.7 18.5 8.1 11.2 14.1 0 28.6 0 55.2 0 82 11.2 96.3 18.5 102.4a34.8 34.8 0 0 0 22.9 8.1c12.9 0 25.5-6 33.8-11.1 22.4-14 40.2-40.7 40.2-40.7a95 95 0 0 0 25.3 25.4 44.7 44.7 0 0 0 22 7.2c5.8 0 11-1.7 15.2-5.3 8-7 12.1-17.6 12.1-30.8 0-13-4-23.8-12.1-30.7"/></g></svg>
